<svg width="42" height="48" viewBox="0 0 42 48" fill="none" xmlns="http://www.w3.org/2000/svg">
<path d="M32.1343 22.2471C31.9275 22.148 31.7175 22.0526 31.5047 21.9613C31.1342 15.1346 27.404 11.2262 21.1405 11.1862C21.1121 11.1861 21.0839 11.1861 21.0555 11.1861C17.3091 11.1861 14.1933 12.7852 12.2755 15.6952L15.7202 18.0582C17.1529 15.8846 19.4013 15.4212 21.0571 15.4212C21.0763 15.4212 21.0955 15.4212 21.1144 15.4214C23.1768 15.4345 24.733 16.0342 25.7402 17.2035C26.4732 18.0548 26.9635 19.2313 27.2062 20.716C25.3777 20.4052 23.4002 20.3096 21.2862 20.4308C15.3312 20.7738 11.5028 24.247 11.7599 29.073C11.8904 31.521 13.1099 33.627 15.1938 35.0028C16.9556 36.1657 19.2248 36.7345 21.5831 36.6058C24.6975 36.435 27.1407 35.2467 28.8452 33.074C30.1397 31.424 30.9585 29.2857 31.32 26.5915C32.8042 27.4872 33.9043 28.666 34.5117 30.083C35.5448 32.4917 35.605 36.45 32.3753 39.677C29.5455 42.504 26.144 43.727 21.0034 43.7648C15.301 43.7225 10.9884 41.8937 8.18452 38.3293C5.55887 34.9915 4.20192 30.1705 4.1513 24C4.20192 17.8295 5.55887 13.0084 8.18452 9.67068C10.9884 6.10623 15.301 4.2775 21.0033 4.23513C26.747 4.27782 31.1348 6.11535 34.046 9.697C35.4735 11.4534 36.5498 13.6622 37.2593 16.2376L41.296 15.1606C40.436 11.9906 39.0827 9.25893 37.2412 6.9935C33.509 2.40167 28.0505 0.048787 21.0174 0H20.9892C13.9704 0.0486175 8.57302 2.41045 4.94707 7.01982C1.72047 11.1216 0.0561 16.8289 0.000174999 23.9831L0 24L0.000174999 24.0169C0.0561 31.171 1.72047 36.8785 4.94707 40.9803C8.57302 45.5895 13.9704 47.9515 20.9892 48H21.0174C27.2575 47.9567 31.656 46.323 35.2795 42.7028C40.0202 37.9665 39.8775 32.0298 38.315 28.3853C37.194 25.7717 35.0568 23.649 32.1343 22.2471ZM21.3601 32.3768C18.7501 32.5238 16.0386 31.3523 15.9049 28.843C15.8058 26.9825 17.229 24.9065 21.5203 24.6592C22.0117 24.6308 22.494 24.617 22.9678 24.617C24.5265 24.617 25.9847 24.7684 27.3105 25.0583C26.816 31.2337 23.9155 32.2365 21.3601 32.3768Z" fill="black"/>
</svg>
